<svg height="151" viewBox="0 0 100 151" width="100" xmlns="http://www.w3.org/2000/svg"><g fill="none" fill-rule="evenodd"><path d="m69.2291928 132.412437c0 10.265628-6.8873623 18.587563-15.3833542 18.587563h-7.6916772c-8.4959919 0-15.3833542-8.321935-15.3833542-18.587563h7.6916771c0 5.132814 3.4436812 9.293782 7.6916771 9.293782h7.6916772c4.2479959 0 7.6916771-4.160968 7.6916771-9.293782zm7.6916771-23.990985c0 8.554689-6.8873623 15.489635-15.3833542 15.489635h-23.0750314c-8.4959919 0-15.3833542-6.934946-15.3833542-15.489635v-15.6600221c-18.71604887-12.0423639-27.29799353-35.0737665-21.06803503-56.5403781 6.2299585-21.4666117 25.77796693-36.2210518 47.98890493-36.2210518s41.7589464 14.7544401 47.9889049 36.2210518c6.2299581 21.4666116-2.3519861 44.4980142-21.068035 56.5403781zm-46.1500627 0c0 4.277344 3.4436812 7.744817 7.6916771 7.744817h23.0750314c4.2479959 0 7.6916771-3.467473 7.6916771-7.744817v-20.1365268c17.4179636-8.9499772 26.4739951-28.7540766 21.9030843-47.898559-4.5709109-19.1444823-21.5774289-32.63964248-41.1322771-32.63964248s-36.5613662 13.49516018-41.13227706 32.63964248c-4.57091088 19.1444824 4.48512066 38.9485818 21.90308426 47.898559z" fill="#ada8a8" fill-rule="nonzero"/><g fill="#d1a558"><g fill-rule="nonzero" stroke="#d1a558" transform="translate(24 26)"><path d="m52.4429043 3.95277998c.3566538.35790957.5570957.84388317.5570957 1.35068474 0 .50680156-.2004419.99277517-.5570957 1.35068473l-26.5475483 26.70845515c-.3557533.3588155-.8387992.5604723-1.3425475.5604723s-.9867941-.2016568-1.3425474-.5604723l-11.3775207-11.4464808c-.479646-.4825531-.6669691-1.1858897-.4914065-1.8450696s.6873388-1.1740581 1.3425474-1.3506848c.6552087-.1766267 1.354308.0118318 1.833954.494385l10.0349732 10.0996115 25.2050009-25.36158592c.3557533-.3588155.8387992-.56047229 1.3425475-.56047229s.9867941.20165679 1.3425474.56047229z"/><path d="m24.43291 3.77273584c-11.4176682 0-20.67351703 9.28095356-20.67351703 20.72958996s9.25584883 20.72959 20.67351703 20.72959c11.4176681 0 20.673517-9.2809536 20.673517-20.72959 0-1.0407851.8414408-1.8845082 1.8794106-1.8845082s1.8794106.8437231 1.8794106 1.8845082c-.0014202 11.0879158-7.4296475 20.7925686-18.1110569 23.6613007s-21.95274442-1.8137337-27.48109115-11.4165065c-5.52834674-9.6027728-3.93529105-21.7315387 3.88409256-29.5716275 7.81938359-7.84008882 19.91544379-9.43668664 29.49188639-3.89272879.6117075.32086175.9987423.95216912 1.0080856 1.64432747s-.360509 1.33373828-.9633315 1.67108379c-.6028226.3373455-1.341568.31614789-1.9241647-.05521211-3.1415298-1.82160093-6.7077833-2.77734851-10.3367585-2.77022702z" stroke-width="2"/></g><path d="m3.5 0c-1.93299662 0-3.5 1.56700338-3.5 3.5s1.56700338 3.5 3.5 3.5 3.5-1.56700338 3.5-3.5-1.56700338-3.5-3.5-3.5z" transform="translate(47 129)"/></g></g></svg>